<?xml version="1.0" encoding="utf-8"?>
<!-- Generator: Adobe Illustrator 23.0.2, SVG Export Plug-In . SVG Version: 6.00 Build 0)  -->
<svg version="1.1" xmlns="http://www.w3.org/2000/svg" xmlns:xlink="http://www.w3.org/1999/xlink" x="0px" y="0px"
	 viewBox="0 0 484.1 185.6" style="enable-background:new 0 0 484.1 185.6;" xml:space="preserve">
<style type="text/css">
	.st0{display:none;}
	.st1{display:inline;fill:none;stroke:#231F20;stroke-width:2.3712;stroke-linecap:round;stroke-miterlimit:10;}
	.st2{display:inline;}
	.st3{fill:none;stroke:#231F20;stroke-width:2.3712;stroke-linecap:round;stroke-miterlimit:10;}
	.st4{fill:#FFFFFF;}
	.st5{display:inline;fill:none;stroke:#231F20;stroke-width:3.9;stroke-linecap:square;stroke-miterlimit:10;}
	
		.st6{display:inline;fill:#FF9203;stroke:#231F20;stroke-width:2.964;stroke-linecap:round;stroke-linejoin:round;stroke-miterlimit:10;}
	.st7{fill:none;stroke:#231F20;stroke-width:1.5921;stroke-linecap:round;stroke-miterlimit:10;}
	.st8{fill:#231F20;stroke:#231F20;stroke-width:1.7767;stroke-miterlimit:10;}
	.st9{display:inline;fill:none;stroke:#231F20;stroke-width:4.4417;stroke-linecap:square;stroke-miterlimit:10;}
	
		.st10{display:inline;fill:#FF9203;stroke:#231F20;stroke-width:4.4417;stroke-linecap:round;stroke-linejoin:round;stroke-miterlimit:10;}
	.st11{display:none;fill:#231F20;}
	.st12{fill:#231F20;}
	.st13{fill:#FF9203;}
	.st14{display:inline;fill:#FF9203;}
	.st15{display:inline;fill:#FFFFFF;}
	.st16{fill:#FFFFFF;stroke:#000000;stroke-miterlimit:10;}
</style>
<g id="Layer_1">
	<g id="new" class="st0">
		<line class="st1" x1="45.1" y1="50.6" x2="44.4" y2="61.3"/>
		<line class="st1" x1="51.7" y1="51.1" x2="51" y2="61.7"/>
		<line class="st1" x1="58.3" y1="51.5" x2="57.6" y2="62.1"/>
		<line class="st1" x1="64.9" y1="51.9" x2="64.1" y2="62.6"/>
		<g class="st2">
			<path class="st3" d="M69.3,182.3l-45.9-3.1c-4.4-0.3-8.4-2.4-11-5.8c-2.8-3.6-4.1-8.5-3.7-14.2l5.8-86.6
				c0.6-8.8,8.2-15.5,17-14.9l45.9,3.1c8.8,0.6,15.5,8.2,14.9,17l-5.8,86.6c-0.4,5.8-2.3,10.5-5.6,13.7
				C77.9,181.1,73.7,182.6,69.3,182.3z"/>
			<path class="st4" d="M31.6,62.5c-6.7-0.4-12.5,4.6-13,11.4L13,158.7c-0.6,9,3.9,15.4,11.2,15.9l45,3c7.4,0.5,12.6-5.1,13.2-14.3
				L88,78.5c0.4-6.7-4.6-12.5-11.4-13L31.6,62.5z"/>
		</g>
		<path class="st5" d="M38.5,60l0.7-10.9c0.2-2.3,2.1-4,4.4-3.8L67,46.8c2.3,0.2,4,2.1,3.8,4.4l-0.7,10.9"/>
		<path class="st6" d="M63.6,26.9c0,0-0.7-9.7-4.6-11.5l-1.7-0.1l-1.7-0.1c-4,1.3-6.1,10.8-6.1,10.8l-3.5,16.4l-0.2,3.5l18.7,1.2
			l0.2-3.5L63.6,26.9z"/>
	</g>
	<g class="st0">
		<g class="st2">
			<line class="st7" x1="44.5" y1="52.4" x2="43.8" y2="63"/>
			<line class="st7" x1="49.5" y1="52.7" x2="48.8" y2="63.3"/>
			<line class="st7" x1="54.4" y1="53" x2="53.7" y2="63.7"/>
			<line class="st7" x1="59.4" y1="53.3" x2="58.7" y2="64"/>
			<line class="st7" x1="64.3" y1="53.6" x2="63.6" y2="64.3"/>
		</g>
		<g class="st2">
			<path class="st8" d="M69.3,181.9l-46-2.9c-4.4-0.3-8.4-2.3-11-5.8c-2.8-3.6-4.1-8.5-3.7-14.2l5.3-83c0.6-8.8,8.2-15.5,17-15
				l46,2.9c8.8,0.6,15.5,8.2,15,17l-5.3,83c-0.4,5.8-2.3,10.5-5.5,13.7C77.9,180.7,73.8,182.2,69.3,181.9z"/>
			<path class="st4" d="M32.8,65.7c-6.7-0.4-14.3,4.8-14.8,11.5l-5.2,81.2c-0.6,9,5.7,15.3,13,15.8l41.5,3
				c7.4,0.5,14.3-5.2,14.9-14.4l5.2-81.2c0.4-6.7-6.5-12.5-13.2-12.9L32.8,65.7z"/>
		</g>
		<path class="st9" d="M37.9,63.2l0.7-10.9c0.1-2.3,2.1-4,4.4-3.8L66.4,50c2.3,0.1,4,2.1,3.8,4.4l-0.7,10.8"/>
		<path class="st10" d="M63.8,29.1c0,0-0.8-9.7-4.6-11.5l-1.7-0.1l-1.7-0.1c-4,1.3-6,10.8-6,10.8l-3.4,16.4l-0.2,3.5L65,49.3
			l0.2-3.5L63.8,29.1z"/>
	</g>
	<g class="st0">
		<g class="st2">
			<path class="st11" d="M51.2,113H77v12h-4.7v16.3c0,3.7-2.9,6.5-6.5,6.5H37.4c-3.6,0-6.6-2.8-6.6-6.5V97.5c0-3.4,2.9-6.4,6.6-6.4
				h35.1v12.2H46.2c-0.4,0-0.8,0.4-0.8,0.9v30.4c0,0.5,0.4,0.8,0.8,0.8H58c0.6,0,0.9-0.3,0.9-0.8V125h-7.6v-12H51.2z"/>
			<path class="st12" d="M88.5,91.1H103v44.4h18.1v12.3H88.5V91.1z"/>
			<path class="st12" d="M146.1,91.1v43.7c0,0.4,0.4,0.8,0.8,0.8h10.7c0.5,0,0.9-0.3,0.9-0.8V91.1H173v50.2c0,3.7-2.9,6.5-6.4,6.5
				h-28.7c-3.4,0-6.5-2.8-6.5-6.5V91.1H146.1z"/>
			<path class="st12" d="M187.2,91.1h37v12.2h-22.5v9.9h19.5v12.1h-19.5v10.2h22.5v12.3h-37V91.1z"/>
			<path class="st12" d="M253.5,135.5h21.3c0.6,0,0.9-0.3,0.9-0.8v-8.2c0-0.4-0.3-0.8-0.9-0.8h-14.6c-3.9,0-6.6-2.7-6.6-6.6V97.7
				c0-3.9,2.7-6.6,6.6-6.6h29.3v12.2H269c-0.5,0-0.8,0.4-0.8,0.9v8.3c0,0.3,0.3,0.8,0.8,0.8h14.6c3.9,0,6.6,2.7,6.6,6.6v21.3
				c0,3.9-2.7,6.6-6.6,6.6h-30.1V135.5z"/>
			<path class="st12" d="M337.9,91.1v12.3H325v44.4h-14.6v-44.4h-12.9V91.1H337.9z"/>
			<path class="st12" d="M361.3,91.1v43.7c0,0.4,0.4,0.8,0.8,0.8h10.7c0.5,0,0.9-0.3,0.9-0.8V91.1h14.6v50.2c0,3.7-2.9,6.5-6.4,6.5
				h-28.7c-3.4,0-6.5-2.8-6.5-6.5V91.1H361.3z"/>
			<path class="st12" d="M402.4,91.1h36v12.2H417v12.9h18.5v12.1H417v19.6h-14.5V91.1H402.4z"/>
			<path class="st12" d="M449.1,91.1h36v12.2h-21.4v12.9h18.5v12.1h-18.5v19.6h-14.5V91.1H449.1z"/>
		</g>
	</g>
	<path class="st13" d="M58.1,8.3c1.6,3.9,2.5,8.1,2.6,12.3l0.2,16.3l-13.5-1L50,19.8c0.7-4.2,2.2-8.2,4.4-11.9
		C55.3,6.5,57.5,6.7,58.1,8.3L58.1,8.3"/>
	<g class="st0">
		<path class="st2" d="M482.5,143.8h-3.7v-3.6h3.7V143.8z"/>
		<path class="st2" d="M495.5,138.8v3.4c0,0.9-0.7,1.5-1.5,1.5h-6.6c-0.8,0-1.5-0.6-1.5-1.5V132c0-0.8,0.7-1.5,1.5-1.5h6.6
			c0.8,0,1.5,0.7,1.5,1.5v3.4h-3.4v-1.8c0-0.1-0.1-0.2-0.2-0.2h-2.5c-0.1,0-0.2,0.1-0.2,0.2v7.1c0,0.1,0.1,0.2,0.2,0.2h2.5
			c0.1,0,0.2-0.1,0.2-0.2v-1.9H495.5z"/>
		<path class="st2" d="M506.9,130.6c0.9,0,1.5,0.6,1.5,1.5v10.1c0,0.9-0.6,1.5-1.5,1.5h-6.8c-0.9,0-1.5-0.6-1.5-1.5v-10.1
			c0-0.9,0.6-1.5,1.5-1.5H506.9z M505.1,133.6c0-0.1-0.1-0.2-0.2-0.2h-2.7c-0.1,0-0.2,0.1-0.2,0.2v7.1c0,0.1,0.1,0.2,0.2,0.2h2.7
			c0.1,0,0.2-0.1,0.2-0.2V133.6z"/>
		<path class="st2" d="M515.3,136.3v7.5h-3.1v-13.2h3.4l2.7,6.2l2.4-6.2h3.6v13.2h-3.2v-7.6l-2.2,5.2h-1.3L515.3,136.3z"/>
	</g>
	<g>
		<path class="st0" d="M50.2,109H76v12h-4.7v16.3c0,3.7-2.9,6.5-6.5,6.5H36.4c-3.6,0-6.6-2.8-6.6-6.5V93.5c0-3.4,2.9-6.4,6.6-6.4
			h35.1v12.2H45.2c-0.4,0-0.8,0.4-0.8,0.9v30.4c0,0.5,0.4,0.8,0.8,0.8H57c0.6,0,0.9-0.3,0.9-0.8V121h-7.6v-12H50.2z"/>
		<path d="M91.5,87.1H102v44.4h18.1v12.3H87.5L91.5,87.1z"/>
		<path d="M145.1,87.1v43.7c0,0.4,0.4,0.8,0.8,0.8h10.7c0.5,0,0.9-0.3,0.9-0.8V87.1H172v50.2c0,3.7-2.9,6.5-6.4,6.5h-28.7
			c-3.4,0-6.5-2.8-6.5-6.5V87.1H145.1z"/>
		<path d="M186.2,87.1h37v12.2h-22.5v9.9h19.5v12.1h-19.5v10.2h22.5v12.3h-37V87.1z"/>
		<path d="M252.5,131.5h21.3c0.6,0,0.9-0.3,0.9-0.8v-8.2c0-0.4-0.3-0.8-0.9-0.8h-14.6c-3.9,0-6.6-2.7-6.6-6.6V93.7
			c0-3.9,2.7-6.6,6.6-6.6h29.3v12.2H268c-0.5,0-0.8,0.4-0.8,0.9v8.3c0,0.3,0.3,0.8,0.8,0.8h14.6c3.9,0,6.6,2.7,6.6,6.6v21.3
			c0,3.9-2.7,6.6-6.6,6.6h-30.1V131.5z"/>
		<path d="M336.9,87.1v12.3H324v44.4h-14.6V99.3h-12.9V87.1H336.9z"/>
		<path d="M360.3,87.1v43.7c0,0.4,0.4,0.8,0.8,0.8h10.7c0.5,0,0.9-0.3,0.9-0.8V87.1h14.6v50.2c0,3.7-2.9,6.5-6.4,6.5h-28.7
			c-3.4,0-6.5-2.8-6.5-6.5V87.1H360.3z"/>
		<path d="M401.4,87.1h36v12.2H416v12.9h18.5v12.1H416v19.6h-14.5V87.1H401.4z"/>
		<path d="M448.1,87.1h36v12.2h-21.4v12.9h18.5v12.1h-18.5v19.6h-14.5V87.1H448.1z"/>
	</g>
	<g id="FINAL" class="st0">
		<path class="st14" d="M63.9,28.4c0,0-0.7-9.6-4.5-11.4l-1.7-0.1l-1.7-0.1C52,18,50,27.4,50,27.4l-3.5,16.3l-0.2,3.4l18.6,1.3
			l0.2-3.4L63.9,28.4z"/>
		<path class="st2" d="M77.5,62.1l-5.2-0.4l0.6-9c0.2-3.3-2.3-6.2-5.6-6.4l-0.8-0.1l0.1-1.1c0-0.1,0-0.1,0-0.2l-1.2-16.6
			c0,0,0,0,0,0c0-0.1-0.2-2.6-0.9-5.3c-1-3.9-2.5-6.4-4.5-7.4c-0.2-0.1-0.4-0.1-0.5-0.1l-3.3-0.2c-0.2,0-0.4,0-0.6,0.1
			c-2.1,0.7-3.9,2.9-5.5,6.7c-1,2.6-1.6,5-1.6,5.1l-3.5,16.3c0,0.1,0,0.1,0,0.2L45,44.7l-0.8-0.1c-3.3-0.2-6.2,2.3-6.4,5.6l-0.6,9
			l-5.2-0.4c-8.7-0.6-16.4,6-17,14.8l-6,86c-0.4,5.6,0.9,10.5,3.6,14.1c2.6,3.4,6.5,5.5,10.9,5.8l45.6,3.2c4.4,0.3,8.6-1.2,11.6-4.1
			c3.2-3.1,5.2-7.8,5.6-13.6l6-86C92.8,70.3,86.2,62.7,77.5,62.1z M48,43.9l3.5-16.2c0.6-2.7,2.5-8.4,4.8-9.5l2.7,0.2
			c2,1.3,3.2,6.6,3.5,10.1L63.6,45l-0.1,1l-15.7-1.1L48,43.9z M41.6,50.5c0.1-1.2,1.1-2.1,2.3-2l23.2,1.6c1.2,0.1,2.1,1.1,2,2.3
			l-0.6,9l-2.7-0.2l0.6-7.9c0-0.6-0.4-1.2-1.1-1.3c-0.6,0-1.2,0.4-1.3,1.1l-0.6,7.9l-4.2-0.3l0.6-7.9c0-0.6-0.4-1.2-1.1-1.3
			c-0.6,0-1.2,0.4-1.3,1.1l-0.6,7.9l-4.2-0.3l0.6-7.9c0-0.6-0.4-1.2-1.1-1.3c-0.6,0-1.2,0.4-1.3,1.1l-0.6,7.9L46,59.9l0.6-7.9
			c0-0.6-0.4-1.2-1.1-1.3c-0.6,0-1.2,0.4-1.3,1.1l-0.6,7.9l-2.7-0.2L41.6,50.5z"/>
		<path class="st15" d="M32,63.6c-6.7-0.5-12.5,4.6-12.9,11.2l-5.9,84.2c-0.6,9,3.8,15.3,11,15.8l44.7,3.1c7.3,0.5,12.5-5,13.1-14.1
			l5.9-84.2c0.5-6.7-4.6-12.5-11.2-12.9L32,63.6z"/>
	</g>
	<g>
		<polygon class="st4" points="11.5,64.4 19,58.6 56,58.9 86.6,64.4 91.9,72.7 85.1,174.4 74.6,180.8 54.2,182.7 26.6,181.2 
			8.5,175.2 3.3,166.9 		"/>
		<path d="M85.5,60.5c-1.6-0.4-3.3-0.9-5.1-1.3l1-13.7c0.4-5.1-3.5-9.6-8.6-10l-5-0.4l-0.2-14.6c-0.1-5.2-1.2-10.2-3.1-14.9
			C61.7-1.3,52.2-2,48.4,4.4c-2.6,4.4-4.4,9.2-5.3,14.2l-2.4,14.5l-5-0.4c-5.1-0.4-9.6,3.5-10,8.6l-1,13.4c-1.7,0.1-3.3,0.2-4.9,0.4
			c-6.7,0.7-12,6.1-12.5,12.9L0,165.5c-0.5,6.7,3.9,12.9,10.4,14.6c9,2.3,19.8,4,31.3,4.9c12.6,0.9,24.8,0.8,34.4-0.5
			c6.5-0.9,11.7-6.2,12.1-12.8L95.6,75C96.1,68.5,91.8,62.4,85.5,60.5z M42.3,178c-11.1-0.8-21.5-2.5-30.1-4.7
			c-3.3-0.8-5.5-3.9-5.2-7.3l7.3-97.6c0.3-3.4,2.9-6.1,6.2-6.4c19.1-2,45.7,0.3,63,5.2c3.2,0.9,5.3,4,5.1,7.3l-7.3,96.6
			c-0.2,3.3-2.8,6-6.1,6.4C66.1,178.8,54.4,178.9,42.3,178z M54.4,8c0.9-1.4,3-1.3,3.7,0.3c0,0,0,0,0,0.1c1.6,3.9,2.5,8.1,2.6,12.3
			L60.9,37l-13.5-1L50,19.8C50.8,15.6,52.2,11.7,54.4,8z M50.2,57.2l1.2-16.3l4.6,0.3l-1.2,16.3L50.2,57.2z M70,42.3l-1.2,16.3
			l-4.6-0.3L65.4,42L70,42.3z M73.5,58.9l-2.3-0.2l1.2-16.3c1.3,0.1,2.2,1.2,2.1,2.5L73.5,58.9z M61.8,58l-4.6-0.3l1.2-16.3l4.6,0.3
			L61.8,58z M49.1,40.7L47.9,57l-4.6-0.3l1.2-16.3L49.1,40.7z M42.2,40.2L41,56.5l-4.6-0.3l1.2-16.3L42.2,40.2z M34,55.9l-2.3-0.2
			l1-13.9c0.1-1.3,1.2-2.2,2.5-2.1L34,55.9z"/>
		<g class="st0">
			<path class="st2" d="M42.3,178c-11.1-0.8-21.5-2.5-30.1-4.7c-3.3-0.8-5.5-3.9-5.2-7.3l7.3-97.6c0.3-3.4,2.9-6.1,6.2-6.4
				c19.1-2,45.7,0.3,63,5.2c3.2,0.9,5.3,4,5.1,7.3l-7.3,96.6c-0.2,3.3-2.8,6-6.1,6.4C66.1,178.8,54.4,178.9,42.3,178z"/>
		</g>
		<path class="st0" d="M49,113l25.6,1.9l-0.9,12l-4.7-0.4l-1.2,16.2c-0.3,3.7-3.3,6.2-6.9,6l-28.3-2.1c-3.6-0.3-6.3-3.3-6-6.9
			L29.8,96c0.3-3.4,3.4-6.1,7-5.9l35,2.6l-0.9,12.1l-26.2-2c-0.4,0-0.9,0.4-0.9,0.9L41.5,134c0,0.5,0.4,0.9,0.8,0.9l11.7,0.9
			c0.6,0,0.9-0.3,1-0.8l0.7-9.5l-7.6-0.6L49,113z"/>
		<path d="M49,109l25.6,1.9l-0.9,12l-4.7-0.4l-1.2,16.2c-0.3,3.7-3.3,6.2-6.9,6l-28.3-2.1c-3.6-0.3-6.3-3.3-6-6.9L29.8,92
			c0.3-3.4,3.4-6.1,7-5.9l35,2.6l-0.9,12.1l-26.2-2c-0.4,0-0.9,0.4-0.9,0.9L41.5,130c0,0.5,0.4,0.9,0.8,0.9l11.7,0.9
			c0.6,0,0.9-0.3,1-0.8l0.7-9.5l-7.6-0.6L49,109z"/>
	</g>
</g>
<g id="Layer_2">
	<path class="st16" d="M13.9,76"/>
</g>
</svg>
